<mxfile host="app.diagrams.net" modified="2022-06-08T08:53:43.182Z" agent="5.0 (Windows NT 10.0; Win64; x64) AppleWebKit/537.36 (KHTML, like Gecko) Chrome/102.0.0.0 Safari/537.36" etag="K3JVTmsoddNbliHuRAzn" version="18.2.0" type="github">
  <diagram id="UHV0SQnw-M6wa7QfBxcj" name="Page-1">
    <mxGraphModel dx="2249" dy="762" grid="1" gridSize="10" guides="1" tooltips="1" connect="1" arrows="1" fold="1" page="1" pageScale="1" pageWidth="827" pageHeight="1169" math="0" shadow="0">
      <root>
        <mxCell id="0" />
        <mxCell id="1" parent="0" />
        <mxCell id="CBCPTYOBR1jDMzW604IS-1" value="" style="rounded=0;whiteSpace=wrap;html=1;fillColor=#f5f5f5;fontColor=#333333;strokeColor=#666666;" vertex="1" parent="1">
          <mxGeometry x="-70" y="180" width="920" height="620" as="geometry" />
        </mxCell>
        <mxCell id="CBCPTYOBR1jDMzW604IS-2" style="edgeStyle=orthogonalEdgeStyle;rounded=0;orthogonalLoop=1;jettySize=auto;html=1;fontSize=25;" edge="1" parent="1" source="CBCPTYOBR1jDMzW604IS-4" target="CBCPTYOBR1jDMzW604IS-6">
          <mxGeometry relative="1" as="geometry" />
        </mxCell>
        <mxCell id="CBCPTYOBR1jDMzW604IS-3" style="edgeStyle=orthogonalEdgeStyle;rounded=0;orthogonalLoop=1;jettySize=auto;html=1;exitX=0.5;exitY=1;exitDx=0;exitDy=0;fontSize=25;" edge="1" parent="1" source="CBCPTYOBR1jDMzW604IS-4" target="CBCPTYOBR1jDMzW604IS-5">
          <mxGeometry relative="1" as="geometry" />
        </mxCell>
        <mxCell id="CBCPTYOBR1jDMzW604IS-4" value="&lt;font style=&quot;font-size: 25px;&quot;&gt;Controller&lt;/font&gt;" style="rounded=0;whiteSpace=wrap;html=1;fillColor=#dae8fc;strokeColor=#6c8ebf;" vertex="1" parent="1">
          <mxGeometry x="40" y="320" width="200" height="150" as="geometry" />
        </mxCell>
        <mxCell id="CBCPTYOBR1jDMzW604IS-5" value="&lt;font style=&quot;font-size: 25px;&quot;&gt;View&lt;/font&gt;" style="rounded=0;whiteSpace=wrap;html=1;fillColor=#ffe6cc;strokeColor=#d79b00;" vertex="1" parent="1">
          <mxGeometry x="40" y="600" width="200" height="150" as="geometry" />
        </mxCell>
        <mxCell id="CBCPTYOBR1jDMzW604IS-6" value="" style="rounded=0;whiteSpace=wrap;html=1;fillColor=#d5e8d4;strokeColor=#82b366;" vertex="1" parent="1">
          <mxGeometry x="370" y="340" width="420" height="380" as="geometry" />
        </mxCell>
        <mxCell id="CBCPTYOBR1jDMzW604IS-7" style="edgeStyle=orthogonalEdgeStyle;rounded=0;orthogonalLoop=1;jettySize=auto;html=1;exitX=0.5;exitY=0;exitDx=0;exitDy=0;entryX=0.5;entryY=1;entryDx=0;entryDy=0;fontSize=30;" edge="1" parent="1" source="CBCPTYOBR1jDMzW604IS-8" target="CBCPTYOBR1jDMzW604IS-9">
          <mxGeometry relative="1" as="geometry" />
        </mxCell>
        <mxCell id="CBCPTYOBR1jDMzW604IS-8" value="" style="rounded=0;whiteSpace=wrap;html=1;fontSize=25;fillColor=#b1ddf0;strokeColor=#10739e;" vertex="1" parent="1">
          <mxGeometry x="435" y="585" width="285" height="115" as="geometry" />
        </mxCell>
        <mxCell id="CBCPTYOBR1jDMzW604IS-9" value="Service" style="rounded=0;whiteSpace=wrap;html=1;fontSize=25;" vertex="1" parent="1">
          <mxGeometry x="452.5" y="450" width="250" height="70" as="geometry" />
        </mxCell>
        <mxCell id="CBCPTYOBR1jDMzW604IS-10" value="&lt;font style=&quot;font-size: 30px;&quot;&gt;MVC&lt;/font&gt;" style="text;html=1;strokeColor=none;fillColor=none;align=center;verticalAlign=middle;whiteSpace=wrap;rounded=0;fontSize=25;" vertex="1" parent="1">
          <mxGeometry x="-20" y="220" width="110" height="50" as="geometry" />
        </mxCell>
        <mxCell id="CBCPTYOBR1jDMzW604IS-11" value="&lt;font style=&quot;font-size: 30px;&quot;&gt;Model&lt;/font&gt;" style="text;html=1;strokeColor=none;fillColor=none;align=center;verticalAlign=middle;whiteSpace=wrap;rounded=0;fontSize=25;" vertex="1" parent="1">
          <mxGeometry x="390" y="360" width="110" height="50" as="geometry" />
        </mxCell>
        <mxCell id="CBCPTYOBR1jDMzW604IS-12" value="&lt;font style=&quot;font-size: 22px;&quot;&gt;Entity&lt;/font&gt;" style="rounded=0;whiteSpace=wrap;html=1;fontSize=30;" vertex="1" parent="1">
          <mxGeometry x="460" y="640" width="100" height="40" as="geometry" />
        </mxCell>
        <mxCell id="CBCPTYOBR1jDMzW604IS-13" value="&lt;font style=&quot;font-size: 22px;&quot;&gt;DataAccess&lt;/font&gt;" style="rounded=0;whiteSpace=wrap;html=1;fontSize=30;" vertex="1" parent="1">
          <mxGeometry x="580" y="640" width="130" height="40" as="geometry" />
        </mxCell>
        <mxCell id="CBCPTYOBR1jDMzW604IS-14" value="DAO" style="text;html=1;strokeColor=none;fillColor=none;align=center;verticalAlign=middle;whiteSpace=wrap;rounded=0;fontSize=22;" vertex="1" parent="1">
          <mxGeometry x="452.5" y="600" width="60" height="30" as="geometry" />
        </mxCell>
        <mxCell id="CBCPTYOBR1jDMzW604IS-15" value="" style="rounded=0;whiteSpace=wrap;html=1;fillColor=#f5f5f5;fontColor=#333333;strokeColor=#666666;" vertex="1" parent="1">
          <mxGeometry x="-70" y="870" width="890" height="580" as="geometry" />
        </mxCell>
        <mxCell id="CBCPTYOBR1jDMzW604IS-16" value="&lt;b&gt;&lt;font style=&quot;font-size: 19px;&quot;&gt;认证 Module&lt;/font&gt;&lt;/b&gt;" style="rounded=0;whiteSpace=wrap;html=1;fillColor=#d5e8d4;strokeColor=#82b366;" vertex="1" parent="1">
          <mxGeometry x="-10" y="930" width="196" height="100" as="geometry" />
        </mxCell>
        <mxCell id="CBCPTYOBR1jDMzW604IS-17" value="&lt;b&gt;&lt;font style=&quot;font-size: 19px;&quot;&gt;用户 Module&lt;/font&gt;&lt;/b&gt;" style="rounded=0;whiteSpace=wrap;html=1;fillColor=#d5e8d4;strokeColor=#82b366;" vertex="1" parent="1">
          <mxGeometry x="250" y="930" width="196" height="100" as="geometry" />
        </mxCell>
        <mxCell id="CBCPTYOBR1jDMzW604IS-18" value="&lt;b&gt;&lt;font style=&quot;font-size: 19px;&quot;&gt;处方 Module&lt;/font&gt;&lt;/b&gt;" style="rounded=0;whiteSpace=wrap;html=1;fillColor=#d5e8d4;strokeColor=#82b366;" vertex="1" parent="1">
          <mxGeometry x="524" y="930" width="196" height="100" as="geometry" />
        </mxCell>
        <mxCell id="CBCPTYOBR1jDMzW604IS-19" value="&lt;b&gt;&lt;font style=&quot;font-size: 19px;&quot;&gt;微信 Module&lt;/font&gt;&lt;/b&gt;" style="rounded=0;whiteSpace=wrap;html=1;fillColor=#d5e8d4;strokeColor=#82b366;" vertex="1" parent="1">
          <mxGeometry x="-10" y="1069" width="196" height="100" as="geometry" />
        </mxCell>
        <mxCell id="CBCPTYOBR1jDMzW604IS-20" value="&lt;b&gt;&lt;font style=&quot;font-size: 19px;&quot;&gt;消息 Module&lt;/font&gt;&lt;/b&gt;" style="rounded=0;whiteSpace=wrap;html=1;fillColor=#d5e8d4;strokeColor=#82b366;" vertex="1" parent="1">
          <mxGeometry x="250" y="1069" width="196" height="100" as="geometry" />
        </mxCell>
        <mxCell id="CBCPTYOBR1jDMzW604IS-21" value="&lt;b&gt;&lt;font style=&quot;font-size: 19px;&quot;&gt;IM Module&lt;/font&gt;&lt;/b&gt;" style="rounded=0;whiteSpace=wrap;html=1;fillColor=#d5e8d4;strokeColor=#82b366;" vertex="1" parent="1">
          <mxGeometry x="524" y="1069" width="196" height="100" as="geometry" />
        </mxCell>
        <mxCell id="CBCPTYOBR1jDMzW604IS-22" value="&lt;b&gt;&lt;font style=&quot;font-size: 19px;&quot;&gt;订单 Module&lt;/font&gt;&lt;/b&gt;" style="rounded=0;whiteSpace=wrap;html=1;fillColor=#d5e8d4;strokeColor=#82b366;" vertex="1" parent="1">
          <mxGeometry x="-10" y="1210" width="196" height="100" as="geometry" />
        </mxCell>
        <mxCell id="CBCPTYOBR1jDMzW604IS-23" value="&lt;b&gt;&lt;font style=&quot;font-size: 19px;&quot;&gt;仓储 Module&lt;/font&gt;&lt;/b&gt;" style="rounded=0;whiteSpace=wrap;html=1;fillColor=#d5e8d4;strokeColor=#82b366;" vertex="1" parent="1">
          <mxGeometry x="250" y="1210" width="196" height="100" as="geometry" />
        </mxCell>
        <mxCell id="CBCPTYOBR1jDMzW604IS-24" value="&lt;b&gt;&lt;font style=&quot;font-size: 19px;&quot;&gt;物流 Module&lt;/font&gt;&lt;/b&gt;" style="rounded=0;whiteSpace=wrap;html=1;fillColor=#d5e8d4;strokeColor=#82b366;" vertex="1" parent="1">
          <mxGeometry x="524" y="1210" width="196" height="100" as="geometry" />
        </mxCell>
        <mxCell id="CBCPTYOBR1jDMzW604IS-25" value="&lt;span style=&quot;font-size: 19px;&quot;&gt;&lt;b&gt;......&lt;/b&gt;&lt;/span&gt;" style="rounded=0;whiteSpace=wrap;html=1;fillColor=#d5e8d4;strokeColor=#82b366;" vertex="1" parent="1">
          <mxGeometry x="-10" y="1330" width="196" height="100" as="geometry" />
        </mxCell>
      </root>
    </mxGraphModel>
  </diagram>
</mxfile>
